<svg width="30" height="30" viewBox="0 0 30 30" fill="none"
  xmlns="http://www.w3.org/2000/svg">
  <path d="M24.5238 5.07812L3.4886 13.5391C2.80716 13.8133 2.84856 14.8224 3.54994 15.036L8.89536 16.6651L10.8902 23.1989C11.0985 23.8814 11.9364 24.0881 12.4214 23.577L15.185 20.6642L20.6076 24.7727C21.2712 25.2754 22.2162 24.9017 22.3847 24.0703L25.9761 6.34752C26.1521 5.47922 25.3246 4.756 24.5238 5.07812ZM21.8866 9.01118L12.116 17.9296C12.0186 18.0183 11.9566 18.1415 11.9421 18.2747L11.566 21.7263C11.5535 21.8391 11.4009 21.854 11.3685 21.7458L9.82046 16.5979C9.74971 16.3625 9.84203 16.1071 10.0453 15.9771L21.5836 8.59057C21.8488 8.42083 22.1205 8.79754 21.8866 9.01118Z" fill="white"/>
</svg>
